<svg width="64" height="43" viewBox="0 0 64 43" fill="none" xmlns="http://www.w3.org/2000/svg">
<path d="M63.22 19.57L44.5 0.780019C43.9963 0.297124 43.3236 0.0305946 42.6259 0.0374838C41.9281 0.044373 41.2608 0.324133 40.7667 0.81688C40.2727 1.30963 39.9912 1.9762 39.9824 2.67392C39.9737 3.37164 40.2384 4.04506 40.72 4.55002L54.79 18.67H2.66999C2.30629 18.6477 1.94187 18.7001 1.59918 18.824C1.25649 18.9478 0.942773 19.1405 0.67735 19.3902C0.411927 19.6398 0.200414 19.9412 0.0558349 20.2756C-0.0887443 20.6101 -0.16333 20.9706 -0.16333 21.335C-0.16333 21.6994 -0.0887443 22.0599 0.0558349 22.3944C0.200414 22.7289 0.411927 23.0302 0.67735 23.2799C0.942773 23.5295 1.25649 23.7222 1.59918 23.8461C1.94187 23.9699 2.30629 24.0223 2.66999 24H55L40.73 38.11C40.4585 38.3513 40.2391 38.6455 40.0853 38.9746C39.9314 39.3036 39.8463 39.6606 39.8351 40.0236C39.824 40.3867 39.887 40.7482 40.0204 41.0861C40.1538 41.4239 40.3547 41.731 40.6109 41.9885C40.8671 42.2461 41.1731 42.4486 41.5102 42.5838C41.8474 42.719 42.2086 42.7839 42.5717 42.7747C42.9348 42.7655 43.2922 42.6823 43.622 42.5302C43.9519 42.378 44.2472 42.1602 44.49 41.89L63.21 23.35C63.4585 23.102 63.6557 22.8074 63.7903 22.4831C63.9248 22.1588 63.994 21.8111 63.994 21.46C63.994 21.1089 63.9248 20.7612 63.7903 20.4369C63.6557 20.1126 63.4585 19.818 63.21 19.57H63.22Z" fill="#20B2AA"/>
</svg>
